<svg width="36" height="36" viewBox="0 0 36 36" fill="none" xmlns="http://www.w3.org/2000/svg">
<path d="M18 36C15.6289 36.0422 13.2743 35.5982 11.0814 34.6952C8.88851 33.7923 6.9039 32.4496 5.25001 30.75C3.55041 29.0961 2.20771 27.1115 1.30477 24.9186C0.401819 22.7258 -0.0422329 20.3711 7.48271e-06 18C-0.0422329 15.6289 0.401819 13.2743 1.30477 11.0814C2.20771 8.88851 3.55041 6.9039 5.25001 5.25001C6.9039 3.55041 8.88851 2.20771 11.0814 1.30477C13.2743 0.401819 15.6289 -0.0422329 18 7.48271e-06C18.2667 7.48271e-06 18.55 0.00834091 18.85 0.0250076C19.15 0.0416742 19.5333 0.066674 20 0.100007C18.7829 1.19064 17.8261 2.54046 17.2 4.05001C16.5337 5.61489 16.1934 7.29919 16.2 9.00001C16.1746 10.4227 16.4411 11.8355 16.9828 13.1512C17.5246 14.4669 18.3302 15.6577 19.35 16.65C20.3423 17.6698 21.5331 18.4754 22.8488 19.0172C24.1645 19.559 25.5773 19.8254 27 19.8C28.6937 19.8074 30.3733 19.4936 31.95 18.875C33.4366 18.3108 34.7839 17.4325 35.9 16.3C35.9333 16.7 35.9583 17.025 35.975 17.275C35.9917 17.525 36 17.7667 36 18C36.0422 20.3711 35.5982 22.7258 34.6952 24.9186C33.7923 27.1115 32.4496 29.0961 30.75 30.75C29.0961 32.4496 27.1115 33.7923 24.9186 34.6952C22.7258 35.5982 20.3711 36.0422 18 36ZM18 33C21.4702 33.0581 24.8443 31.8594 27.5 29.625C30.0359 27.6348 31.8173 24.8393 32.55 21.7C31.692 22.0743 30.7948 22.351 29.875 22.525C28.9276 22.7081 27.9649 22.8002 27 22.8C25.1821 22.8324 23.3769 22.492 21.6957 21.7997C20.0145 21.1075 18.493 20.0781 17.225 18.775C15.922 17.507 14.8925 15.9855 14.2003 14.3043C13.508 12.6231 13.1676 10.8179 13.2 9.00001C13.2061 8.13592 13.2898 7.27413 13.45 6.42501C13.6591 5.35928 13.9602 4.31369 14.35 3.30001C11.1126 4.18027 8.25638 6.1049 6.22501 8.77501C4.12268 11.3885 2.98391 14.6459 3.00001 18C2.96476 19.976 3.33478 21.9382 4.08724 23.7656C4.8397 25.593 5.95863 27.2468 7.37501 28.625C8.75322 30.0414 10.4071 31.1603 12.2345 31.9128C14.0619 32.6652 16.0241 33.0353 18 33Z" fill="#D1D7DB"/>
</svg>
