<svg width="37" height="29" viewBox="0 0 37 29" fill="none" xmlns="http://www.w3.org/2000/svg">
<path d="M18.327 7.096C18.2259 7.096 18.1258 7.07608 18.0323 7.03739C17.9389 6.99869 17.854 6.94197 17.7825 6.87047C17.711 6.79897 17.6543 6.71409 17.6156 6.62066C17.5769 6.52724 17.557 6.42712 17.557 6.326V1.77C17.557 1.56578 17.6381 1.36993 17.7825 1.22553C17.9269 1.08112 18.1228 1 18.327 1C18.5312 1 18.7271 1.08112 18.8715 1.22553C19.0159 1.36993 19.097 1.56578 19.097 1.77V6.326C19.097 6.42712 19.0771 6.52724 19.0384 6.62066C18.9997 6.71409 18.943 6.79897 18.8715 6.87047C18.8 6.94197 18.7151 6.99869 18.6217 7.03739C18.5282 7.07608 18.4281 7.096 18.327 7.096Z" fill="#1A1A1A"/>
<path d="M6.326 19.097H1.77C1.56578 19.097 1.36993 19.0159 1.22553 18.8715C1.08112 18.7271 1 18.5312 1 18.327C1 18.1228 1.08112 17.9269 1.22553 17.7825C1.36993 17.6381 1.56578 17.557 1.77 17.557H6.326C6.53022 17.557 6.72607 17.6381 6.87047 17.7825C7.01488 17.9269 7.096 18.1228 7.096 18.327C7.096 18.5312 7.01488 18.7271 6.87047 18.8715C6.72607 19.0159 6.53022 19.097 6.326 19.097Z" fill="#1A1A1A"/>
<path d="M34.885 19.097H30.33C30.1258 19.097 29.9299 19.0159 29.7855 18.8715C29.6411 18.7271 29.56 18.5312 29.56 18.327C29.56 18.1228 29.6411 17.9269 29.7855 17.7825C29.9299 17.6381 30.1258 17.557 30.33 17.557H34.885C35.0892 17.557 35.2851 17.6381 35.4295 17.7825C35.5739 17.9269 35.655 18.1228 35.655 18.327C35.655 18.5312 35.5739 18.7271 35.4295 18.8715C35.2851 19.0159 35.0892 19.097 34.885 19.097Z" fill="#1A1A1A"/>
<path d="M26.814 10.611C26.6616 10.611 26.5127 10.5658 26.386 10.4812C26.2594 10.3965 26.1607 10.2761 26.1024 10.1353C26.0442 9.99456 26.029 9.83966 26.0588 9.69024C26.0887 9.54083 26.1622 9.40363 26.27 9.296L29.491 6.075C29.6354 5.93059 29.8313 5.84946 30.0355 5.84946C30.2397 5.84946 30.4356 5.93059 30.58 6.075C30.7244 6.21941 30.8055 6.41527 30.8055 6.6195C30.8055 6.82372 30.7244 7.01959 30.58 7.164L27.359 10.385C27.2876 10.4568 27.2026 10.5137 27.1091 10.5525C27.0155 10.5913 26.9153 10.6112 26.814 10.611Z" fill="#1A1A1A"/>
<path d="M9.841 10.611C9.7399 10.6111 9.63977 10.5912 9.54641 10.5524C9.45304 10.5136 9.36828 10.4567 9.297 10.385L6.076 7.164C5.94712 7.01727 5.87881 6.82704 5.8849 6.63184C5.89099 6.43664 5.97102 6.25105 6.1088 6.11264C6.24658 5.97422 6.4318 5.89334 6.62697 5.88635C6.82214 5.87936 7.01268 5.9468 7.16 6.075L10.386 9.301C10.4938 9.40863 10.5673 9.54583 10.5972 9.69524C10.627 9.84465 10.6118 9.99956 10.5536 10.1403C10.4953 10.2811 10.3966 10.4015 10.27 10.4861C10.1433 10.5708 9.99436 10.616 9.842 10.616L9.841 10.611Z" fill="#1A1A1A"/>
<path d="M13.735 8.009C13.5826 8.00893 13.4336 7.96368 13.3068 7.87895C13.1801 7.79423 13.0813 7.67384 13.023 7.533L12.144 5.41C12.1053 5.31656 12.0854 5.21642 12.0855 5.1153C12.0855 5.01418 12.1054 4.91405 12.1441 4.82063C12.1829 4.72722 12.2396 4.64235 12.3111 4.57086C12.3827 4.49937 12.4676 4.44267 12.561 4.404C12.6544 4.36532 12.7546 4.34543 12.8557 4.34546C12.9568 4.34548 13.0569 4.36543 13.1504 4.40415C13.2438 4.44287 13.3286 4.49962 13.4001 4.57114C13.4716 4.64266 13.5283 4.72756 13.567 4.821L14.446 6.944C14.4847 7.03743 14.5046 7.13757 14.5046 7.2387C14.5045 7.33982 14.4846 7.43995 14.4459 7.53337C14.4071 7.62679 14.3504 7.71166 14.2789 7.78315C14.2073 7.85463 14.1224 7.91133 14.029 7.95C13.9357 7.98854 13.8359 8.00858 13.735 8.009Z" fill="#1A1A1A"/>
<path d="M22.92 8.009C22.7935 8.00872 22.6689 7.97728 22.5574 7.91748C22.4459 7.85768 22.3508 7.77134 22.2805 7.66609C22.2102 7.56085 22.167 7.43992 22.1545 7.31399C22.142 7.18805 22.1608 7.06099 22.209 6.944L23.088 4.821C23.1662 4.6323 23.3162 4.48241 23.505 4.4043C23.6938 4.32619 23.9058 4.32626 24.0945 4.4045C24.2832 4.48274 24.4331 4.63273 24.5112 4.82149C24.5893 5.01025 24.5892 5.2223 24.511 5.411L23.632 7.534C23.5736 7.67474 23.4748 7.79499 23.3481 7.87954C23.2213 7.9641 23.0724 8.00915 22.92 8.009Z" fill="#1A1A1A"/>
<path d="M29.416 14.504C29.2371 14.5056 29.0633 14.4449 28.9243 14.3322C28.7853 14.2196 28.6899 14.0621 28.6544 13.8868C28.6189 13.7115 28.6456 13.5293 28.7298 13.3715C28.814 13.2137 28.9506 13.0901 29.116 13.022L31.239 12.143C31.4277 12.0648 31.6398 12.0647 31.8285 12.1428C32.0173 12.2209 32.1673 12.3708 32.2455 12.5595C32.3237 12.7482 32.3238 12.9603 32.2457 13.149C32.1676 13.3378 32.0177 13.4878 31.829 13.566L29.706 14.445C29.6141 14.4832 29.5156 14.5032 29.416 14.504Z" fill="#1A1A1A"/>
<path d="M7.238 14.505C7.13706 14.505 7.03714 14.4849 6.944 14.446L4.821 13.567C4.72756 13.5283 4.64266 13.4716 4.57114 13.4001C4.49962 13.3287 4.44287 13.2438 4.40415 13.1504C4.32595 12.9617 4.32589 12.7497 4.404 12.561C4.48211 12.3723 4.63198 12.2224 4.82064 12.1442C5.0093 12.0659 5.2213 12.0659 5.41 12.144L7.533 13.023C7.698 13.0909 7.83428 13.2141 7.91855 13.3714C8.00282 13.5287 8.02984 13.7103 7.99501 13.8853C7.96017 14.0603 7.86564 14.2178 7.72756 14.3308C7.58948 14.4439 7.41644 14.5054 7.238 14.505Z" fill="#1A1A1A"/>
<path d="M25.818 23.517L18.5 24L10.838 23.517C10.7042 23.517 10.5726 23.4822 10.4564 23.4159C10.3401 23.3496 10.2431 23.2542 10.175 23.139C9.32627 21.7013 8.87286 20.0646 8.86075 18.3951C8.84864 16.7256 9.27826 15.0825 10.106 13.6326C10.9338 12.1827 12.1303 10.9775 13.5742 10.1392C15.0181 9.30096 16.6579 8.85943 18.3275 8.85943C19.9971 8.85943 21.6369 9.30096 23.0808 10.1392C24.5247 10.9775 25.7212 12.1827 26.549 13.6326C27.3767 15.0825 27.8064 16.7256 27.7943 18.3951C27.7821 20.0646 27.3287 21.7013 26.48 23.139C26.412 23.254 26.3151 23.3494 26.1991 23.4157C26.083 23.482 25.9517 23.5169 25.818 23.517ZM11.7264 23.139L18 23.4157L25.1015 22.977C25.7283 21.7687 26.296 19.4193 26.25 18.0589C26.204 16.6985 25.8085 15.3728 25.1015 14.2096C24.3945 13.0463 23.3999 12.0848 22.2134 11.4175C21.027 10.7502 19.6887 10.3997 18.3275 10.3997C16.9663 10.3997 15.628 10.7502 14.4416 11.4175C13.2551 12.0848 12.2605 13.0463 11.5535 14.2096C10.8465 15.3728 10.451 16.6985 10.405 18.0589C10.359 19.4193 11.0996 21.9307 11.7264 23.139Z" fill="#1A1A1A"/>
<path d="M31.94 24.517H4.716C4.51178 24.517 4.31593 24.4359 4.17153 24.2915C4.02713 24.1471 3.946 23.9512 3.946 23.747C3.946 23.5428 4.02713 23.3469 4.17153 23.2025C4.31593 23.0581 4.51178 22.977 4.716 22.977H31.94C32.1442 22.977 32.3401 23.0581 32.4845 23.2025C32.6289 23.3469 32.71 23.5428 32.71 23.747C32.71 23.9512 32.6289 24.1471 32.4845 24.2915C32.3401 24.4359 32.1442 24.517 31.94 24.517Z" fill="#1A1A1A"/>
<path d="M28.23 28.5H8.53C8.32578 28.5 8.12993 28.4189 7.98553 28.2745C7.84112 28.1301 7.76 27.9342 7.76 27.73C7.76 27.5258 7.84112 27.3299 7.98553 27.1855C8.12993 27.0411 8.32578 26.96 8.53 26.96H28.23C28.4342 26.96 28.6301 27.0411 28.7745 27.1855C28.9189 27.3299 29 27.5258 29 27.73C29 27.9342 28.9189 28.1301 28.7745 28.2745C28.6301 28.4189 28.4342 28.5 28.23 28.5Z" fill="#1A1A1A"/>
<path d="M18.327 7.096C18.2259 7.096 18.1258 7.07608 18.0323 7.03739C17.9389 6.99869 17.854 6.94197 17.7825 6.87047C17.711 6.79897 17.6543 6.71409 17.6156 6.62066C17.5769 6.52724 17.557 6.42712 17.557 6.326V1.77C17.557 1.56578 17.6381 1.36993 17.7825 1.22553C17.9269 1.08112 18.1228 1 18.327 1C18.5312 1 18.7271 1.08112 18.8715 1.22553C19.0159 1.36993 19.097 1.56578 19.097 1.77V6.326C19.097 6.42712 19.0771 6.52724 19.0384 6.62066C18.9997 6.71409 18.943 6.79897 18.8715 6.87047C18.8 6.94197 18.7151 6.99869 18.6217 7.03739C18.5282 7.07608 18.4281 7.096 18.327 7.096Z" stroke="#1A1A1A"/>
<path d="M6.326 19.097H1.77C1.56578 19.097 1.36993 19.0159 1.22553 18.8715C1.08112 18.7271 1 18.5312 1 18.327C1 18.1228 1.08112 17.9269 1.22553 17.7825C1.36993 17.6381 1.56578 17.557 1.77 17.557H6.326C6.53022 17.557 6.72607 17.6381 6.87047 17.7825C7.01488 17.9269 7.096 18.1228 7.096 18.327C7.096 18.5312 7.01488 18.7271 6.87047 18.8715C6.72607 19.0159 6.53022 19.097 6.326 19.097Z" stroke="#1A1A1A"/>
<path d="M34.885 19.097H30.33C30.1258 19.097 29.9299 19.0159 29.7855 18.8715C29.6411 18.7271 29.56 18.5312 29.56 18.327C29.56 18.1228 29.6411 17.9269 29.7855 17.7825C29.9299 17.6381 30.1258 17.557 30.33 17.557H34.885C35.0892 17.557 35.2851 17.6381 35.4295 17.7825C35.5739 17.9269 35.655 18.1228 35.655 18.327C35.655 18.5312 35.5739 18.7271 35.4295 18.8715C35.2851 19.0159 35.0892 19.097 34.885 19.097Z" stroke="#1A1A1A"/>
<path d="M26.814 10.611C26.6616 10.611 26.5127 10.5658 26.386 10.4812C26.2594 10.3965 26.1607 10.2761 26.1024 10.1353C26.0442 9.99456 26.029 9.83966 26.0588 9.69024C26.0887 9.54083 26.1622 9.40363 26.27 9.296L29.491 6.075C29.6354 5.93059 29.8313 5.84946 30.0355 5.84946C30.2397 5.84946 30.4356 5.93059 30.58 6.075C30.7244 6.21941 30.8055 6.41527 30.8055 6.6195C30.8055 6.82372 30.7244 7.01959 30.58 7.164L27.359 10.385C27.2876 10.4568 27.2026 10.5137 27.1091 10.5525C27.0155 10.5913 26.9153 10.6112 26.814 10.611Z" stroke="#1A1A1A"/>
<path d="M9.841 10.611C9.7399 10.6111 9.63977 10.5912 9.54641 10.5524C9.45304 10.5136 9.36828 10.4567 9.297 10.385L6.076 7.164C5.94712 7.01727 5.87881 6.82704 5.8849 6.63184C5.89099 6.43664 5.97102 6.25105 6.1088 6.11264C6.24658 5.97422 6.4318 5.89334 6.62697 5.88635C6.82214 5.87936 7.01268 5.9468 7.16 6.075L10.386 9.301C10.4938 9.40863 10.5673 9.54583 10.5972 9.69524C10.627 9.84465 10.6118 9.99956 10.5536 10.1403C10.4953 10.2811 10.3966 10.4015 10.27 10.4861C10.1433 10.5708 9.99436 10.616 9.842 10.616L9.841 10.611Z" stroke="#1A1A1A"/>
<path d="M13.735 8.009C13.5826 8.00893 13.4336 7.96368 13.3068 7.87895C13.1801 7.79423 13.0813 7.67384 13.023 7.533L12.144 5.41C12.1053 5.31656 12.0854 5.21642 12.0855 5.1153C12.0855 5.01418 12.1054 4.91405 12.1441 4.82063C12.1829 4.72722 12.2396 4.64235 12.3111 4.57086C12.3827 4.49937 12.4676 4.44267 12.561 4.404C12.6544 4.36532 12.7546 4.34543 12.8557 4.34546C12.9568 4.34548 13.0569 4.36543 13.1504 4.40415C13.2438 4.44287 13.3286 4.49962 13.4001 4.57114C13.4716 4.64266 13.5283 4.72756 13.567 4.821L14.446 6.944C14.4847 7.03743 14.5046 7.13757 14.5046 7.2387C14.5045 7.33982 14.4846 7.43995 14.4459 7.53337C14.4071 7.62679 14.3504 7.71166 14.2789 7.78315C14.2073 7.85463 14.1224 7.91133 14.029 7.95C13.9357 7.98854 13.8359 8.00858 13.735 8.009Z" stroke="#1A1A1A"/>
<path d="M22.92 8.009C22.7935 8.00872 22.6689 7.97728 22.5574 7.91748C22.4459 7.85768 22.3508 7.77134 22.2805 7.66609C22.2102 7.56085 22.167 7.43992 22.1545 7.31399C22.142 7.18805 22.1608 7.06099 22.209 6.944L23.088 4.821C23.1662 4.6323 23.3162 4.48241 23.505 4.4043C23.6938 4.32619 23.9058 4.32626 24.0945 4.4045C24.2832 4.48274 24.4331 4.63273 24.5112 4.82149C24.5893 5.01025 24.5892 5.2223 24.511 5.411L23.632 7.534C23.5736 7.67474 23.4748 7.79499 23.3481 7.87954C23.2213 7.9641 23.0724 8.00915 22.92 8.009Z" stroke="#1A1A1A"/>
<path d="M29.416 14.504C29.2371 14.5056 29.0633 14.4449 28.9243 14.3322C28.7853 14.2196 28.6899 14.0621 28.6544 13.8868C28.6189 13.7115 28.6456 13.5293 28.7298 13.3715C28.814 13.2137 28.9506 13.0901 29.116 13.022L31.239 12.143C31.4277 12.0648 31.6398 12.0647 31.8285 12.1428C32.0173 12.2209 32.1673 12.3708 32.2455 12.5595C32.3237 12.7482 32.3238 12.9603 32.2457 13.149C32.1676 13.3378 32.0177 13.4878 31.829 13.566L29.706 14.445C29.6141 14.4832 29.5156 14.5032 29.416 14.504Z" stroke="#1A1A1A"/>
<path d="M7.238 14.505C7.13706 14.505 7.03714 14.4849 6.944 14.446L4.821 13.567C4.72756 13.5283 4.64266 13.4716 4.57114 13.4001C4.49962 13.3287 4.44287 13.2438 4.40415 13.1504C4.32595 12.9617 4.32589 12.7497 4.404 12.561C4.48211 12.3723 4.63198 12.2224 4.82064 12.1442C5.0093 12.0659 5.2213 12.0659 5.41 12.144L7.533 13.023C7.698 13.0909 7.83428 13.2141 7.91855 13.3714C8.00282 13.5287 8.02984 13.7103 7.99501 13.8853C7.96017 14.0603 7.86564 14.2178 7.72756 14.3308C7.58948 14.4439 7.41644 14.5054 7.238 14.505Z" stroke="#1A1A1A"/>
<path d="M25.818 23.517L18.5 24L10.838 23.517C10.7042 23.517 10.5726 23.4822 10.4564 23.4159C10.3401 23.3496 10.2431 23.2542 10.175 23.139C9.32627 21.7013 8.87286 20.0646 8.86075 18.3951C8.84864 16.7256 9.27826 15.0825 10.106 13.6326C10.9338 12.1827 12.1303 10.9775 13.5742 10.1392C15.0181 9.30096 16.6579 8.85943 18.3275 8.85943C19.9971 8.85943 21.6369 9.30096 23.0808 10.1392C24.5247 10.9775 25.7212 12.1827 26.549 13.6326C27.3767 15.0825 27.8064 16.7256 27.7943 18.3951C27.7821 20.0646 27.3287 21.7013 26.48 23.139C26.412 23.254 26.3151 23.3494 26.1991 23.4157C26.083 23.482 25.9517 23.5169 25.818 23.517ZM11.7264 23.139L18 23.4157L25.1015 22.977C25.7283 21.7687 26.296 19.4193 26.25 18.0589C26.204 16.6985 25.8085 15.3728 25.1015 14.2096C24.3945 13.0463 23.3999 12.0848 22.2134 11.4175C21.027 10.7502 19.6887 10.3997 18.3275 10.3997C16.9663 10.3997 15.628 10.7502 14.4416 11.4175C13.2551 12.0848 12.2605 13.0463 11.5535 14.2096C10.8465 15.3728 10.451 16.6985 10.405 18.0589C10.359 19.4193 11.0996 21.9307 11.7264 23.139Z" stroke="#1A1A1A"/>
<path d="M31.94 24.517H4.716C4.51178 24.517 4.31593 24.4359 4.17153 24.2915C4.02713 24.1471 3.946 23.9512 3.946 23.747C3.946 23.5428 4.02713 23.3469 4.17153 23.2025C4.31593 23.0581 4.51178 22.977 4.716 22.977H31.94C32.1442 22.977 32.3401 23.0581 32.4845 23.2025C32.6289 23.3469 32.71 23.5428 32.71 23.747C32.71 23.9512 32.6289 24.1471 32.4845 24.2915C32.3401 24.4359 32.1442 24.517 31.94 24.517Z" stroke="#1A1A1A"/>
<path d="M28.23 28.5H8.53C8.32578 28.5 8.12993 28.4189 7.98553 28.2745C7.84112 28.1301 7.76 27.9342 7.76 27.73C7.76 27.5258 7.84112 27.3299 7.98553 27.1855C8.12993 27.0411 8.32578 26.96 8.53 26.96H28.23C28.4342 26.96 28.6301 27.0411 28.7745 27.1855C28.9189 27.3299 29 27.5258 29 27.73C29 27.9342 28.9189 28.1301 28.7745 28.2745C28.6301 28.4189 28.4342 28.5 28.23 28.5Z" stroke="#1A1A1A"/>
</svg>
